<?xml version="1.0" encoding="utf-8"?>
<!-- Generator: Adobe Illustrator 27.5.0, SVG Export Plug-In . SVG Version: 6.00 Build 0)  -->
<svg version="1.1" xmlns="http://www.w3.org/2000/svg" xmlns:xlink="http://www.w3.org/1999/xlink" x="0px" y="0px"
	 viewBox="0 0 500 500" style="enable-background:new 0 0 500 500;" xml:space="preserve">
<g id="Plants">
	<g id="Plants_1_">
		<g id="XMLID_3755_">
			<g id="XMLID_3768_">
				<path id="XMLID_3769_" style="fill:#BA68C8;" d="M41.419,297.721l7.813-4.515c0,0,4.65-19.322,2.797-36.709
					c-2.605-24.445-18.696-33.643-24.815-31.534c-6.118,2.108-7.891,9.221,2.233,23.78
					C35.421,257.333,42.759,275.225,41.419,297.721z"/>
			</g>
			<g id="XMLID_3766_" style="opacity:0.65;">
				<path id="XMLID_3767_" style="fill:#FFFFFF;" d="M41.419,297.721l7.813-4.515c0,0,4.65-19.322,2.797-36.709
					c-2.605-24.445-18.696-33.643-24.815-31.534c-6.118,2.108-7.891,9.221,2.233,23.78
					C35.421,257.333,42.759,275.225,41.419,297.721z"/>
			</g>
			<g id="XMLID_3760_">
				<path id="XMLID_3761_" style="fill:#FFFFFF;" d="M44.656,288.228c-0.025-0.001-0.05-0.004-0.075-0.009
					c-0.294-0.056-0.487-0.339-0.431-0.633c4.283-22.547-3.593-47.882-13.347-58.425c-0.203-0.219-0.19-0.563,0.03-0.766
					c0.22-0.201,0.563-0.19,0.766,0.03c9.931,10.735,17.961,36.484,13.615,59.362C45.164,288.057,44.922,288.242,44.656,288.228z"/>
			</g>
		</g>
		<g id="XMLID_3719_">
			<g id="XMLID_3728_">
				<path id="XMLID_3729_" style="fill:#BA68C8;" d="M21.755,309.074c-1.167,0.594-4.271-2.063-5.136-2.709
					c-1.481-1.106-2.65-2.625-3.392-4.314c-0.864-1.966-1.002-4.033-0.594-6.138c0.212-1.092,0.573-2.149,0.934-3.201
					c0.354-1.033,0.708-2.066,1.063-3.099c0.35-1.019,0.704-2.074,0.621-3.149c-0.167-2.165-2-3.768-3.67-5.155
					c-1.847-1.534-3.75-3.532-3.608-6.121c0.109-1.997,1.237-3.801,2.555-5.306c1.317-1.506,2.856-2.817,4.059-4.415
					c0.865-1.151,1.565-2.519,1.506-3.958c-0.036-0.894-0.363-1.751-0.75-2.558c-0.829-1.732-1.958-3.337-2.497-5.18
					c-0.539-1.843-0.336-4.091,1.143-5.316c1.214-1.005,2.946-1.067,4.511-0.884c1.448,0.169,2.835,0.896,4.07,1.668
					c3.995,2.493,6.096,7.48,10.369,9.459c1.648,0.763,3.484,1.005,5.215,1.557c1.73,0.552,3.474,1.538,4.204,3.201
					c1.44,3.279-1.73,7.071-0.776,10.522c0.845,3.055,3.706,4.352,5.209,7.142c0.657,1.221,0.754,2.598,0.568,3.972
					c-0.314,2.326-0.742,4.022-1.993,6.563c-1.034,2.099-3.947,6.068-3.947,6.068S21.934,308.983,21.755,309.074z"/>
			</g>
			<g id="XMLID_3726_" style="opacity:0.3;">
				<path id="XMLID_3727_" style="fill:#FFFFFF;" d="M21.755,309.074c-1.167,0.594-4.271-2.063-5.136-2.709
					c-1.481-1.106-2.65-2.625-3.392-4.314c-0.864-1.966-1.002-4.033-0.594-6.138c0.212-1.092,0.573-2.149,0.934-3.201
					c0.354-1.033,0.708-2.066,1.063-3.099c0.35-1.019,0.704-2.074,0.621-3.149c-0.167-2.165-2-3.768-3.67-5.155
					c-1.847-1.534-3.75-3.532-3.608-6.121c0.109-1.997,1.237-3.801,2.555-5.306c1.317-1.506,2.856-2.817,4.059-4.415
					c0.865-1.151,1.565-2.519,1.506-3.958c-0.036-0.894-0.363-1.751-0.75-2.558c-0.829-1.732-1.958-3.337-2.497-5.18
					c-0.539-1.843-0.336-4.091,1.143-5.316c1.214-1.005,2.946-1.067,4.511-0.884c1.448,0.169,2.835,0.896,4.07,1.668
					c3.995,2.493,6.096,7.48,10.369,9.459c1.648,0.763,3.484,1.005,5.215,1.557c1.73,0.552,3.474,1.538,4.204,3.201
					c1.44,3.279-1.73,7.071-0.776,10.522c0.845,3.055,3.706,4.352,5.209,7.142c0.657,1.221,0.754,2.598,0.568,3.972
					c-0.314,2.326-0.742,4.022-1.993,6.563c-1.034,2.099-3.947,6.068-3.947,6.068S21.934,308.983,21.755,309.074z"/>
			</g>
			<g id="XMLID_3724_">
				<path id="XMLID_3725_" style="fill:#FFFFFF;" d="M33.064,303.18c-0.007,0-0.014-0.001-0.014-0.001
					c-0.289-0.027-0.496-0.277-0.471-0.558c1.871-20.279-6.573-43.197-13.207-50.067c-0.196-0.203-0.191-0.528,0.012-0.725
					c0.204-0.196,0.528-0.19,0.725,0.012c6.767,7.007,15.387,30.308,13.491,50.873C33.575,302.99,33.337,303.194,33.064,303.18z"/>
			</g>
			<g id="XMLID_3720_">
				<path id="XMLID_3721_" style="fill:#FFFFFF;" d="M31.05,278.175c-0.05-0.003-0.101-0.012-0.15-0.031
					c-6.427-2.348-14.547-3.114-14.628-3.121c-0.282-0.026-0.489-0.276-0.464-0.558c0.026-0.281,0.251-0.493,0.558-0.464
					c0.083,0.008,8.331,0.786,14.885,3.18c0.266,0.097,0.403,0.391,0.306,0.657C31.478,278.056,31.269,278.186,31.05,278.175z"/>
			</g>
		</g>
	</g>
	<g id="Plants_2_">
		<g id="XMLID_3779_">
			<g id="XMLID_3786_">
				<path id="XMLID_3787_" style="fill:#BA68C8;" d="M458.581,297.721l-7.813-4.515c0,0-4.65-19.322-2.797-36.709
					c2.605-24.445,18.696-33.643,24.815-31.534c6.118,2.108,7.891,9.221-2.233,23.78
					C464.579,257.333,457.241,275.225,458.581,297.721z"/>
			</g>
			<g id="XMLID_3784_" style="opacity:0.65;">
				<path id="XMLID_3785_" style="fill:#FFFFFF;" d="M458.581,297.721l-7.813-4.515c0,0-4.65-19.322-2.797-36.709
					c2.605-24.445,18.696-33.643,24.815-31.534c6.118,2.108,7.891,9.221-2.233,23.78
					C464.579,257.333,457.241,275.225,458.581,297.721z"/>
			</g>
			<g id="XMLID_3780_">
				<path id="XMLID_3781_" style="fill:#FFFFFF;" d="M455.344,288.228c0.025-0.001,0.05-0.004,0.075-0.009
					c0.294-0.056,0.487-0.339,0.431-0.633c-4.283-22.547,3.593-47.882,13.347-58.425c0.203-0.219,0.19-0.563-0.03-0.766
					c-0.22-0.201-0.563-0.19-0.766,0.03c-9.931,10.735-17.961,36.484-13.615,59.362
					C454.836,288.057,455.078,288.242,455.344,288.228z"/>
			</g>
		</g>
		<g id="XMLID_3770_">
			<g id="XMLID_3777_">
				<path id="XMLID_3778_" style="fill:#BA68C8;" d="M478.245,309.074c1.167,0.594,4.271-2.063,5.136-2.709
					c1.481-1.106,2.65-2.625,3.392-4.314c0.863-1.966,1.002-4.033,0.594-6.138c-0.211-1.092-0.573-2.149-0.934-3.201
					c-0.354-1.033-0.708-2.066-1.063-3.099c-0.35-1.019-0.704-2.074-0.621-3.149c0.167-2.165,2-3.768,3.67-5.155
					c1.847-1.534,3.75-3.532,3.608-6.121c-0.109-1.997-1.237-3.801-2.555-5.306c-1.317-1.506-2.856-2.817-4.059-4.415
					c-0.866-1.151-1.565-2.519-1.506-3.958c0.036-0.894,0.363-1.751,0.75-2.558c0.829-1.732,1.958-3.337,2.497-5.18
					c0.539-1.843,0.336-4.091-1.143-5.316c-1.214-1.005-2.946-1.067-4.511-0.884c-1.448,0.169-2.835,0.896-4.07,1.668
					c-3.995,2.493-6.096,7.48-10.369,9.459c-1.648,0.763-3.484,1.005-5.215,1.557c-1.73,0.552-3.474,1.538-4.204,3.201
					c-1.44,3.279,1.73,7.071,0.776,10.522c-0.845,3.055-3.706,4.352-5.209,7.142c-0.657,1.221-0.754,2.598-0.568,3.972
					c0.314,2.326,0.742,4.022,1.993,6.563c1.034,2.099,3.947,6.068,3.947,6.068S478.066,308.983,478.245,309.074z"/>
			</g>
			<g id="XMLID_3775_" style="opacity:0.3;">
				<path id="XMLID_3776_" style="fill:#FFFFFF;" d="M478.245,309.074c1.167,0.594,4.271-2.063,5.136-2.709
					c1.481-1.106,2.65-2.625,3.392-4.314c0.863-1.966,1.002-4.033,0.594-6.138c-0.211-1.092-0.573-2.149-0.934-3.201
					c-0.354-1.033-0.708-2.066-1.063-3.099c-0.35-1.019-0.704-2.074-0.621-3.149c0.167-2.165,2-3.768,3.67-5.155
					c1.847-1.534,3.75-3.532,3.608-6.121c-0.109-1.997-1.237-3.801-2.555-5.306c-1.317-1.506-2.856-2.817-4.059-4.415
					c-0.866-1.151-1.565-2.519-1.506-3.958c0.036-0.894,0.363-1.751,0.75-2.558c0.829-1.732,1.958-3.337,2.497-5.18
					c0.539-1.843,0.336-4.091-1.143-5.316c-1.214-1.005-2.946-1.067-4.511-0.884c-1.448,0.169-2.835,0.896-4.07,1.668
					c-3.995,2.493-6.096,7.48-10.369,9.459c-1.648,0.763-3.484,1.005-5.215,1.557c-1.73,0.552-3.474,1.538-4.204,3.201
					c-1.44,3.279,1.73,7.071,0.776,10.522c-0.845,3.055-3.706,4.352-5.209,7.142c-0.657,1.221-0.754,2.598-0.568,3.972
					c0.314,2.326,0.742,4.022,1.993,6.563c1.034,2.099,3.947,6.068,3.947,6.068S478.066,308.983,478.245,309.074z"/>
			</g>
			<g id="XMLID_3773_">
				<path id="XMLID_3774_" style="fill:#FFFFFF;" d="M466.936,303.18c0.007,0,0.014-0.001,0.014-0.001
					c0.289-0.027,0.496-0.277,0.471-0.558c-1.871-20.279,6.573-43.197,13.207-50.067c0.196-0.203,0.191-0.528-0.012-0.725
					c-0.204-0.196-0.528-0.19-0.725,0.012c-6.767,7.007-15.387,30.308-13.491,50.873C466.425,302.99,466.663,303.194,466.936,303.18
					z"/>
			</g>
			<g id="XMLID_3771_">
				<path id="XMLID_3772_" style="fill:#FFFFFF;" d="M468.95,278.175c0.05-0.003,0.101-0.012,0.15-0.031
					c6.427-2.348,14.547-3.114,14.628-3.121c0.282-0.026,0.489-0.276,0.464-0.558c-0.026-0.281-0.251-0.493-0.558-0.464
					c-0.083,0.008-8.331,0.786-14.885,3.18c-0.266,0.097-0.403,0.391-0.306,0.657C468.522,278.056,468.731,278.186,468.95,278.175z"
					/>
			</g>
		</g>
	</g>
</g>
<g id="Floor">
	<ellipse id="Floor_9_" style="fill:#F5F5F5;" cx="250" cy="353.524" rx="242.363" ry="139.93"/>
</g>
<g id="Shadows">
	<polygon id="Shadow_10_" style="fill:#E0E0E0;" points="194.197,377.754 263.326,337.842 177.931,288.539 108.802,328.451 	"/>
	<polygon id="Shadow_16_" style="fill:#E0E0E0;" points="293.264,464.722 357.59,427.584 293.264,390.444 228.938,427.583 	"/>
	<ellipse id="Shadow_20_" style="fill:#E0E0E0;" cx="391.409" cy="378.628" rx="56.118" ry="32.4"/>
	<ellipse id="Shadow_19_" style="fill:#E0E0E0;" cx="99.541" cy="375.927" rx="70.762" ry="40.854"/>
</g>
<g id="Check_Marks_1_">
	<g id="Check_Marks">
		<g>
			<g>
				<g id="XMLID_3788_">
					<g id="XMLID_3795_">
						<g id="XMLID_3796_">
							<path style="fill:#E0E0E0;" d="M20.741,93.264c-0.119,0-0.238-0.031-0.345-0.093c-0.214-0.123-0.346-0.352-0.346-0.598
								V69.715c0-0.246,0.132-0.475,0.346-0.598l19.659-11.35c0.213-0.123,0.477-0.123,0.689,0c0.214,0.123,0.346,0.352,0.346,0.598
								l-0.003,22.86c0,0.247-0.132,0.475-0.346,0.598L21.086,93.171C20.979,93.233,20.86,93.264,20.741,93.264z M21.432,70.114
								v21.265l18.275-10.551l0.003-21.267L21.432,70.114z"/>
						</g>
					</g>
				</g>
			</g>
			<g>
				<g id="XMLID_1165_">
					<g id="XMLID_1175_">
						<g id="XMLID_1176_">
							<path style="fill:#E0E0E0;" d="M20.741,132.107c-0.119,0-0.238-0.031-0.345-0.093c-0.214-0.123-0.346-0.352-0.346-0.598
								v-22.859c0-0.246,0.132-0.475,0.346-0.598l19.659-11.349c0.213-0.123,0.477-0.123,0.689,0
								c0.214,0.123,0.346,0.352,0.346,0.598l-0.003,22.86c0,0.247-0.132,0.475-0.346,0.598l-19.656,11.348
								C20.979,132.076,20.86,132.107,20.741,132.107z M21.432,108.955v21.266l18.275-10.551l0.003-21.267L21.432,108.955z"/>
						</g>
					</g>
					<g id="XMLID_1166_">
						<polygon id="XMLID_1167_" style="fill:#BA68C8;" points="30.33,121.419 25.757,117.019 27.281,113.779 29.885,116.284 
							41.157,92.435 43.126,94.33 						"/>
					</g>
				</g>
			</g>
			<g>
				<g id="XMLID_907_">
					<g id="XMLID_1163_">
						<g id="XMLID_1164_">
							<path style="fill:#E0E0E0;" d="M20.741,170.949c-0.119,0-0.238-0.031-0.345-0.093c-0.214-0.123-0.346-0.352-0.346-0.598
								V147.4c0-0.246,0.132-0.475,0.346-0.598l19.659-11.35c0.213-0.123,0.477-0.123,0.689,0c0.214,0.123,0.346,0.352,0.346,0.598
								l-0.003,22.86c0,0.247-0.132,0.475-0.346,0.598l-19.656,11.348C20.979,170.917,20.86,170.949,20.741,170.949z
								 M21.432,147.798v21.265l18.275-10.551l0.003-21.267L21.432,147.798z"/>
						</g>
					</g>
				</g>
			</g>
		</g>
		<g>
			<g>
				<g id="XMLID_3798_">
					<g id="XMLID_3799_">
						<g id="XMLID_3813_">
							<path style="fill:#E0E0E0;" d="M478.914,93.171l-19.656-11.348c-0.214-0.123-0.346-0.351-0.346-0.598l-0.003-22.86
								c0-0.246,0.132-0.475,0.346-0.598c0.213-0.123,0.477-0.123,0.689,0l19.659,11.35c0.214,0.123,0.346,0.352,0.346,0.598v22.858
								c0,0.246-0.132,0.475-0.346,0.598c-0.106,0.062-0.225,0.093-0.345,0.093C479.14,93.264,479.021,93.233,478.914,93.171z
								 M460.29,59.561l0.003,21.267l18.275,10.551V70.114L460.29,59.561z"/>
						</g>
					</g>
				</g>
			</g>
			<g>
				<g id="XMLID_1173_">
					<g id="XMLID_3791_">
						<g id="XMLID_3792_">
							<path style="fill:#E0E0E0;" d="M478.914,132.014l-19.656-11.348c-0.214-0.123-0.346-0.351-0.346-0.598l-0.003-22.86
								c0-0.246,0.132-0.475,0.346-0.598c0.213-0.123,0.477-0.123,0.689,0l19.659,11.349c0.214,0.123,0.346,0.352,0.346,0.598
								v22.859c0,0.246-0.132,0.475-0.346,0.598c-0.106,0.061-0.225,0.093-0.345,0.093
								C479.14,132.107,479.021,132.076,478.914,132.014z M460.29,98.404l0.003,21.267l18.275,10.551v-21.266L460.29,98.404z"/>
						</g>
					</g>
				</g>
			</g>
			<g>
				<g id="XMLID_1143_">
					<g id="XMLID_1152_">
						<g id="XMLID_1156_">
							<path style="fill:#E0E0E0;" d="M478.914,170.856l-19.656-11.348c-0.214-0.123-0.346-0.351-0.346-0.598l-0.003-22.86
								c0-0.246,0.132-0.475,0.346-0.598c0.213-0.123,0.477-0.123,0.689,0l19.659,11.35c0.214,0.123,0.346,0.352,0.346,0.598v22.858
								c0,0.246-0.132,0.475-0.346,0.598c-0.106,0.061-0.225,0.093-0.345,0.093C479.14,170.949,479.021,170.917,478.914,170.856z
								 M460.29,137.245l0.003,21.267l18.275,10.551v-21.265L460.29,137.245z"/>
						</g>
					</g>
				</g>
			</g>
			<g id="XMLID_3814_">
				<polygon id="XMLID_3815_" style="fill:#BA68C8;" points="468.5,158.871 463.928,149.192 466.041,147.172 469.092,153.667 
					479.775,143.374 481.297,146.558 				"/>
			</g>
		</g>
		<g>
			<g>
				<g id="XMLID_1160_">
					<g id="XMLID_1168_">
						<g id="XMLID_1169_">
							<path style="fill:#E0E0E0;" d="M198.149,68.022l-19.656-11.348c-0.214-0.123-0.346-0.351-0.346-0.598l-0.003-22.86
								c0-0.246,0.132-0.475,0.346-0.598c0.213-0.123,0.477-0.123,0.689,0l19.659,11.349c0.214,0.123,0.346,0.352,0.346,0.598
								v22.859c0,0.246-0.132,0.475-0.346,0.598c-0.106,0.062-0.226,0.093-0.345,0.093
								C198.375,68.115,198.255,68.084,198.149,68.022z M179.525,34.412l0.003,21.267l18.275,10.551V44.964L179.525,34.412z"/>
						</g>
					</g>
					<g id="XMLID_1161_">
						<polygon id="XMLID_1162_" style="fill:#BA68C8;" points="188.349,57.329 183.776,47.65 185.889,45.63 188.94,52.125 
							199.623,41.832 201.145,45.016 						"/>
					</g>
				</g>
			</g>
			<g>
				<g id="XMLID_3790_">
					<g id="XMLID_3793_">
						<g id="XMLID_3794_">
							<path style="fill:#E0E0E0;" d="M228.633,85.613l-19.656-11.348c-0.214-0.123-0.346-0.351-0.346-0.598l-0.003-22.86
								c0-0.246,0.132-0.475,0.346-0.598c0.213-0.123,0.477-0.123,0.689,0l19.659,11.349c0.214,0.123,0.346,0.352,0.346,0.598
								v22.859c0,0.246-0.132,0.475-0.346,0.598c-0.106,0.062-0.226,0.093-0.345,0.093
								C228.858,85.705,228.739,85.674,228.633,85.613z M210.008,52.002l0.003,21.267l18.275,10.551V62.554L210.008,52.002z"/>
						</g>
					</g>
				</g>
			</g>
			<g>
				<g id="XMLID_3797_">
					<g id="XMLID_3803_">
						<g id="XMLID_3804_">
							<path style="fill:#E0E0E0;" d="M259.082,103.204l-19.656-11.348c-0.214-0.123-0.346-0.351-0.346-0.598l-0.003-22.86
								c0-0.246,0.132-0.475,0.346-0.598c0.213-0.123,0.477-0.123,0.689,0l19.659,11.349c0.214,0.123,0.346,0.352,0.346,0.598
								v22.859c0,0.246-0.132,0.475-0.346,0.598c-0.106,0.062-0.226,0.093-0.345,0.093
								C259.307,103.296,259.188,103.265,259.082,103.204z M240.458,69.593l0.003,21.267l18.275,10.551V80.145L240.458,69.593z"/>
						</g>
					</g>
				</g>
			</g>
		</g>
	</g>
</g>
<g id="Cabin_2_">
	<g id="Cabin">
		<g id="Stand_1_">
			<g>
				<polygon style="fill:#455A64;" points="181.234,161.391 125.997,324.955 122.052,327.232 177.291,163.668 				"/>
				<polygon style="fill:#263238;" points="122.052,327.232 120.097,326.109 175.334,162.544 177.291,163.668 				"/>
				<polygon style="fill:#263238;" points="177.289,295.342 175.334,294.22 120.097,194.437 122.054,195.561 				"/>
				<polygon style="fill:#455A64;" points="125.997,193.283 181.234,293.064 177.289,295.341 122.054,195.56 				"/>
			</g>
			<g>
				<polygon style="fill:#455A64;" points="195.061,233.165 195.062,237.721 254.243,203.55 254.243,198.995 				"/>
				<polygon style="fill:#37474F;" points="195.063,233.165 195.062,237.721 120.096,194.439 120.098,189.884 				"/>
			</g>
			<g>
				<polygon style="fill:#455A64;" points="254.243,203.55 199.006,367.115 195.061,369.392 250.3,205.827 				"/>
				<polygon style="fill:#263238;" points="195.061,369.392 193.106,368.269 248.343,204.703 250.3,205.827 				"/>
				<polygon style="fill:#263238;" points="250.298,337.502 248.343,336.379 193.106,236.597 195.063,237.72 				"/>
				<polygon style="fill:#455A64;" points="199.006,235.442 254.243,335.223 250.298,337.5 195.063,237.719 				"/>
			</g>
		</g>
		<g id="Cabin_1_">
			<g>
				<g>
					<path style="fill:#BA68C8;" d="M179.279,73.708l-15.796,9.12c-26.847,15.5-43.385,44.146-43.385,75.146v31.91l3.945,2.278
						l59.181-34.17l0-82.006L179.279,73.708z"/>
					<path style="opacity:0.6;fill:#FFFFFF;" d="M179.279,73.708l-15.796,9.12c-26.847,15.5-43.385,44.146-43.385,75.146v31.91
						l3.945,2.278l59.181-34.17l0-82.006L179.279,73.708z"/>
					<path style="opacity:0.6;fill:#FFFFFF;" d="M126.513,125.25l56.71,32.742l0.001,0l0-82.006l-3.944-2.278l-15.797,9.12
						C146.515,92.625,133.672,107.676,126.513,125.25z"/>
					<path style="fill:#BA68C8;" d="M124.042,192.161v-31.91c0-31,16.538-59.645,43.385-75.146l15.796-9.12l0,82.006
						L124.042,192.161z"/>
					<path style="opacity:0.7;fill:#FFFFFF;" d="M124.042,192.161v-31.91c0-31,16.538-59.645,43.385-75.146l15.796-9.12l0,82.006
						L124.042,192.161z"/>
				</g>
				<g>
					<polygon style="fill:#BA68C8;" points="191.115,226.33 124.042,187.605 183.225,153.436 250.299,192.161 					"/>
					<polygon style="opacity:0.8;fill:#FFFFFF;" points="191.115,226.33 124.042,187.605 183.225,153.436 250.299,192.161 					"/>
				</g>
				<g>
					<polygon style="fill:#BA68C8;" points="191.117,230.887 191.115,226.33 124.042,187.605 124.042,192.161 					"/>
					<polygon style="opacity:0.6;fill:#FFFFFF;" points="191.117,230.887 191.115,226.33 124.042,187.605 124.042,192.161 					"/>
				</g>
			</g>
			<g>
				<polygon style="opacity:0.3;fill:#BA68C8;" points="146.298,189.473 173.917,205.419 209.426,184.917 181.807,168.972 				"/>
				<polygon style="fill:#FAFAFA;" points="146.298,187.848 173.917,203.794 209.426,183.292 181.807,167.347 				"/>
				<g>
					<path style="fill:#BA68C8;" d="M193.643,188.092c-0.042,0-0.083-0.01-0.121-0.032l-3.945-2.278
						c-0.075-0.044-0.121-0.124-0.121-0.211s0.047-0.167,0.121-0.211l3.945-2.278c0.076-0.044,0.167-0.044,0.243,0l3.946,2.278
						c0.075,0.044,0.121,0.124,0.121,0.211s-0.046,0.167-0.121,0.211l-3.946,2.278C193.727,188.081,193.685,188.092,193.643,188.092
						z M190.184,185.57l3.459,1.998l3.46-1.998l-3.46-1.998L190.184,185.57z"/>
				</g>
				<g>
					<path style="fill:#BA68C8;" d="M185.752,192.647c-0.042,0-0.084-0.01-0.122-0.032l-3.945-2.279
						c-0.075-0.044-0.121-0.124-0.121-0.21c0-0.086,0.046-0.167,0.121-0.211l3.945-2.278c0.076-0.044,0.167-0.044,0.243,0
						l3.946,2.278c0.075,0.044,0.122,0.124,0.122,0.211c0,0.086-0.046,0.167-0.122,0.21l-3.946,2.279
						C185.836,192.637,185.794,192.647,185.752,192.647z M182.293,190.126l3.459,1.998l3.46-1.998l-3.46-1.998L182.293,190.126z"/>
				</g>
				<g>
					<path style="fill:#BA68C8;" d="M177.862,197.203c-0.042,0-0.083-0.01-0.121-0.032l-3.946-2.278
						c-0.075-0.044-0.122-0.124-0.122-0.211c0-0.086,0.046-0.167,0.122-0.211l3.946-2.278c0.076-0.044,0.167-0.044,0.243,0
						l3.945,2.278c0.075,0.044,0.121,0.124,0.121,0.211c0,0.086-0.046,0.167-0.121,0.211l-3.945,2.278
						C177.946,197.193,177.904,197.203,177.862,197.203z M174.402,194.682l3.46,1.998l3.459-1.998l-3.459-1.998L174.402,194.682z"/>
				</g>
				<g>
					<path style="fill:#E0E0E0;" d="M187.691,182.685c-0.083,0-0.166-0.021-0.243-0.065l-11.836-6.833
						c-0.232-0.134-0.312-0.431-0.177-0.663c0.134-0.232,0.432-0.311,0.663-0.177l11.836,6.833c0.232,0.134,0.312,0.431,0.177,0.663
						C188.022,182.598,187.858,182.685,187.691,182.685z"/>
				</g>
				<g>
					<path style="fill:#E0E0E0;" d="M179.834,187.195c-0.083,0-0.166-0.021-0.243-0.066l-11.836-6.834
						c-0.232-0.134-0.312-0.431-0.177-0.663c0.134-0.232,0.432-0.311,0.663-0.177l11.836,6.834c0.232,0.134,0.312,0.431,0.177,0.663
						C180.165,187.108,180.001,187.195,179.834,187.195z"/>
				</g>
				<g>
					<path style="fill:#E0E0E0;" d="M171.977,191.705c-0.083,0-0.166-0.021-0.243-0.066l-11.836-6.833
						c-0.232-0.134-0.312-0.431-0.177-0.663c0.134-0.232,0.432-0.311,0.663-0.177l11.836,6.833c0.232,0.134,0.312,0.431,0.177,0.663
						C172.309,191.617,172.144,191.705,171.977,191.705z"/>
				</g>
			</g>
			<g>
				<g>
					<g>
						<polygon style="fill:#BA68C8;" points="183.224,75.986 250.298,114.711 246.354,116.989 179.279,78.263 						"/>
						<polygon style="opacity:0.8;fill:#FFFFFF;" points="183.224,75.986 250.298,114.711 246.354,116.989 179.279,78.263 						"/>
					</g>
					<g>
						<polygon style="fill:#BA68C8;" points="179.279,78.263 179.279,155.715 246.352,194.44 246.354,116.989 						"/>
						<polygon style="opacity:0.6;fill:#FFFFFF;" points="179.279,78.263 179.279,155.715 246.352,194.44 246.354,116.989 						"/>
					</g>
				</g>
				<g>
					<path style="fill:#BA68C8;" d="M250.298,114.711l-15.797,9.12c-26.846,15.5-43.385,44.146-43.385,75.146v31.91l3.944,2.278
						l59.181-34.17l0-82.006L250.298,114.711z"/>
					<path style="opacity:0.6;fill:#FFFFFF;" d="M250.298,114.711l-15.797,9.12c-26.846,15.5-43.385,44.146-43.385,75.146v31.91
						l3.944,2.278l59.181-34.17l0-82.006L250.298,114.711z"/>
					<path style="opacity:0.6;fill:#FFFFFF;" d="M197.532,166.253l56.71,32.742l0.001,0l0-82.006l-3.945-2.278l-15.797,9.12
						C217.534,133.628,204.691,148.679,197.532,166.253z"/>
					<path style="fill:#BA68C8;" d="M195.062,233.165v-31.91c0-31,16.538-59.645,43.385-75.146l15.797-9.12l0,82.006
						L195.062,233.165z"/>
					<path style="opacity:0.8;fill:#FFFFFF;" d="M195.062,233.165v-31.91c0-31,16.538-59.645,43.385-75.146l15.797-9.12l0,82.006
						L195.062,233.165z"/>
				</g>
			</g>
		</g>
		<g id="Text">
			<g>
				<g>
					<path style="fill:#455A64;" d="M220.924,166.804l-1.797,4.595v2.626l-0.264,0.152v-2.626l-1.802-2.516l0.337-0.195l1.306,1.872
						l0.291,0.465l0.28-0.795l1.318-3.386L220.924,166.804z"/>
					<path style="fill:#455A64;" d="M223.238,171.727c-1.328,0.766-2.026-0.044-2.026-1.96c0-1.916,0.709-3.614,2.026-4.375
						c1.328-0.766,2.033,0.108,2.033,2.032C225.271,169.34,224.549,170.97,223.238,171.727z M223.244,165.717
						c-1.271,0.734-1.762,2.377-1.762,3.895c0,1.52,0.497,2.514,1.762,1.783c1.26-0.727,1.758-2.303,1.758-3.815
						C225.001,166.083,224.521,164.981,223.244,165.717z"/>
					<path style="fill:#455A64;" d="M229.719,161.726v3.366c0,1.915-0.583,3.229-1.82,3.943c-1.236,0.714-1.826,0.086-1.826-1.837
						v-3.367l0.258-0.148v3.396c0,1.535,0.435,2.282,1.568,1.629c1.128-0.652,1.563-1.894,1.563-3.437v-3.396L229.719,161.726z"/>
					<path style="fill:#455A64;" d="M234.341,165.241l-0.303,0.175l-0.556-1.298c-0.257-0.6-0.635-0.725-1.294-0.344l-1.23,0.711
						l0.023,0.026v2.671l-0.258,0.149v-6.183l1.889-1.091c0.796-0.459,1.409-0.256,1.409,0.928c0,0.778-0.338,1.645-1.042,2.25
						v0.015c0.361-0.04,0.596,0.252,0.739,0.588L234.341,165.241z M232.613,160.384l-1.66,0.958l0.028,0.029v2.725l-0.028,0.063
						l1.596-0.922c0.842-0.487,1.203-1.374,1.203-2.098C233.752,160.132,233.248,160.018,232.613,160.384z"/>
				</g>
			</g>
			<g>
				<path style="fill:#BA68C8;" d="M209.09,197.542l-3.729-11.76l2.849-1.645l1.61,5.669c0.642,2.234,0.895,3.161,0.911,3.212
					l0.045-0.027c0.015-0.067,0.268-1.287,0.895-4.193l1.626-7.597l2.715-1.567l-3.729,16.066L209.09,197.542z"/>
				<path style="fill:#BA68C8;" d="M221.645,176.103c3.191-1.842,5.503-0.196,5.503,4.057s-2.313,8.57-5.503,10.412
					c-3.192,1.842-5.504,0.196-5.504-4.057C216.141,182.262,218.453,177.945,221.645,176.103z M221.645,187.413
					c1.73-0.999,2.983-3.311,2.983-5.797c0-2.504-1.253-3.371-2.983-2.372c-1.73,0.999-2.983,3.311-2.983,5.816
					C218.661,187.545,219.914,188.412,221.645,187.413z"/>
				<path style="fill:#BA68C8;" d="M233.363,172.717v10.812l-2.506,1.447v-10.812l-3.192,1.842v-3.1l8.889-5.133v3.101
					L233.363,172.717z"/>
				<path style="fill:#BA68C8;" d="M237.848,167.028l7.606-4.392v3.101l-5.1,2.945v2.385l3.758-2.17v2.782l-3.758,2.169v2.544
					l5.175-2.988v3.102l-7.681,4.434V167.028z"/>
			</g>
			<g>
				<path style="fill:#455A64;" d="M215.932,204.146l-0.257,0.148v-5.403l-0.012,0.006l-0.32,1.239l-1.534,5.312l-0.011,0.007
					l-1.54-3.56l-0.315-0.857l-0.011,0.007v5.411l-0.258,0.149v-6.183l0.235-0.136l1.654,3.815l0.235,0.605l0.011-0.007l0.234-0.884
					l1.654-5.718l0.234-0.135V204.146z"/>
				<path style="fill:#455A64;" d="M220.743,201.369l-0.292,0.169l-0.527-1.33l0.012-0.037l-2.6,1.501l0.012,0.031l-0.521,1.926
					l-0.292,0.168l1.992-7.332l0.229-0.132L220.743,201.369z M219.827,199.905l-0.034-0.027l-1.02-2.609l-0.125-0.469l-0.011,0.007
					l-0.132,0.617l-1.025,3.798l-0.033,0.057L219.827,199.905z"/>
				<path style="fill:#455A64;" d="M224.008,193.629l-1.678,0.969l0.017,0.027v5.817l-0.258,0.149v-5.816l0.018-0.048l-1.678,0.968
					v-0.328l3.579-2.066V193.629z"/>
				<path style="fill:#455A64;" d="M227.816,191.43l-1.677,0.969l0.017,0.027v5.816l-0.258,0.149v-5.816l0.017-0.047l-1.677,0.967
					v-0.328l3.578-2.066V191.43z"/>
				<path style="fill:#455A64;" d="M231.566,195.12l-3.12,1.801v-6.183l3.12-1.801v0.328l-2.891,1.669l0.029,0.021v2.519
					l-0.029,0.055l2.617-1.511v0.328l-2.617,1.511l0.029,0.021v2.527l-0.029,0.055l2.891-1.669V195.12z"/>
				<path style="fill:#455A64;" d="M236.101,192.502l-0.303,0.175l-0.556-1.298c-0.257-0.6-0.635-0.725-1.294-0.345l-1.23,0.711
					l0.023,0.025v2.671l-0.258,0.15v-6.183l1.889-1.091c0.796-0.46,1.408-0.256,1.408,0.928c0,0.778-0.337,1.645-1.042,2.25v0.015
					c0.361-0.041,0.596,0.251,0.739,0.588L236.101,192.502z M234.373,187.645l-1.66,0.958l0.028,0.029v2.726l-0.028,0.062
					l1.596-0.922c0.842-0.487,1.203-1.373,1.203-2.098C235.512,187.392,235.009,187.278,234.373,187.645z"/>
				<path style="fill:#455A64;" d="M238.193,191.369c-0.676,0.391-1.299,0.446-1.775,0.14l0.212-0.397
					c0.447,0.285,0.973,0.27,1.552-0.064c0.967-0.56,1.448-1.401,1.448-2.118c0-0.565-0.321-0.854-1.025-0.713
					c-0.102,0.02-0.749,0.142-0.858,0.168c-0.836,0.154-1.283,0.014-1.283-0.795c0-0.779,0.482-1.834,1.689-2.532
					c0.624-0.361,1.156-0.378,1.551-0.095l-0.2,0.382c-0.332-0.258-0.813-0.269-1.345,0.038c-0.916,0.528-1.426,1.326-1.426,2.036
					c0,0.656,0.452,0.686,1.185,0.553l0.784-0.149c0.876-0.161,1.196,0.241,1.196,0.928
					C239.898,189.523,239.492,190.62,238.193,191.369z"/>
			</g>
			<polygon style="fill:#BA68C8;" points="240.053,155.537 240.802,157.13 242.478,156.487 241.265,158.763 241.551,160.823 
				240.053,160.638 238.553,162.554 238.84,160.163 237.627,159.287 239.303,157.995 			"/>
			<polygon style="fill:#BA68C8;" points="211.196,172.197 210.447,174.655 208.771,175.947 209.984,176.823 209.697,179.214 
				211.196,177.298 212.695,177.483 212.409,175.423 213.622,173.147 211.946,173.79 			"/>
		</g>
	</g>
</g>
<g id="Box_1_">
	<g id="Box">
		<g id="Stand">
			<g>
				<polygon style="fill:#455A64;" points="335.423,341.291 297.033,458.155 293.25,460.338 331.642,343.474 				"/>
				<polygon style="fill:#263238;" points="293.25,460.338 291.375,459.261 329.765,342.397 331.642,343.474 				"/>
				<polygon style="fill:#263238;" points="346.224,429.755 344.349,428.678 306.525,356.598 308.401,357.675 				"/>
				<polygon style="fill:#455A64;" points="312.183,355.49 350.007,427.569 346.225,429.753 308.401,357.674 				"/>
			</g>
			<g>
				<polygon style="fill:#455A64;" points="282.463,310.706 244.074,427.569 240.291,429.753 278.682,312.889 				"/>
				<polygon style="fill:#263238;" points="240.291,429.753 238.416,428.676 276.805,311.812 278.682,312.889 				"/>
				<polygon style="fill:#263238;" points="293.264,399.17 291.389,398.093 253.565,326.013 255.442,327.09 				"/>
				<polygon style="fill:#455A64;" points="259.223,324.905 297.048,396.984 293.265,399.168 255.441,327.089 				"/>
			</g>
			<g>
				<polygon style="fill:#455A64;" points="289.48,370.783 228.936,335.829 293.263,298.69 353.805,333.645 				"/>
				<polygon style="fill:#37474F;" points="289.48,375.152 289.48,370.783 353.805,333.645 353.806,338.014 				"/>
				<polygon style="fill:#263238;" points="289.48,375.152 289.48,370.783 228.936,335.829 228.963,340.183 				"/>
			</g>
		</g>
		<g id="Box_9_">
			<g id="Box_5_">
				<g id="Box_7_">
					<polygon id="XMLID_341_" style="fill:#BA68C8;" points="289.508,366.414 289.508,313.991 237.946,284.322 237.946,336.744 
											"/>
					<polygon id="XMLID_340_" style="fill:#BA68C8;" points="289.508,313.991 344.811,282.044 344.811,334.466 289.508,366.414 
											"/>
					<polygon id="XMLID_325_" style="opacity:0.15;fill:#FFFFFF;" points="289.508,313.991 344.811,282.044 344.811,334.466 
						289.508,366.414 					"/>
					<polygon id="XMLID_337_" style="fill:#BA68C8;" points="289.508,313.991 236.505,283.477 293.249,250.689 346.252,281.204 
											"/>
					<polygon id="XMLID_320_" style="opacity:0.3;fill:#FFFFFF;" points="289.508,313.991 236.505,283.477 293.249,250.689 
						346.252,281.204 					"/>
					<polygon id="XMLID_336_" style="fill:#BA68C8;" points="289.508,313.991 289.508,323.352 236.505,292.849 236.505,283.477 
											"/>
					<polygon id="XMLID_335_" style="fill:#BA68C8;" points="346.252,281.204 289.508,313.991 289.508,323.352 346.252,290.572 
											"/>
					<polygon id="XMLID_324_" style="opacity:0.15;fill:#FFFFFF;" points="346.252,281.204 289.508,313.991 289.508,323.352 
						346.252,290.572 					"/>
					<path style="opacity:0.1;" d="M237.946,293.681l0,2.058l51.561,29.67v-2.058L237.946,293.681z M344.811,291.404l-55.304,31.948
						l0.001,2.058l55.302-31.948L344.811,291.404z"/>
				</g>
			</g>
			<polygon style="fill:#BA68C8;" points="274.344,287.767 281.912,292.136 308.399,276.844 300.831,272.475 			"/>
			<polygon style="opacity:0.2;" points="306.507,277.939 308.399,276.844 300.831,272.475 300.839,274.677 			"/>
			<polygon style="opacity:0.1;" points="276.236,288.86 300.831,274.659 300.831,272.475 274.344,287.767 			"/>
			<g>
				<path style="fill:#FAFAFA;" d="M301.299,344.333l-3.573-11.281l2.73-1.576l1.543,5.438c0.615,2.141,0.857,3.031,0.872,3.08
					l0.043-0.025c0.014-0.065,0.258-1.236,0.858-4.022l1.558-7.286l2.601-1.501l-3.573,15.406L301.299,344.333z"/>
				<path style="fill:#FAFAFA;" d="M313.338,323.772c3.059-1.766,5.274-0.186,5.274,3.893c0,4.079-2.216,8.218-5.274,9.984
					c-3.06,1.765-5.275,0.185-5.275-3.894C308.064,329.676,310.279,325.538,313.338,323.772z M313.338,334.617
					c1.659-0.957,2.858-3.175,2.858-5.558c0-2.401-1.2-3.233-2.858-2.275c-1.658,0.957-2.859,3.175-2.859,5.577
					C310.479,334.744,311.68,335.575,313.338,334.617z"/>
				<path style="fill:#FAFAFA;" d="M324.576,320.525v10.37l-2.402,1.386v-10.37l-3.059,1.766v-2.974l8.52-4.919v2.973
					L324.576,320.525z"/>
				<path style="fill:#FAFAFA;" d="M328.88,315.065l7.29-4.209v2.973l-4.889,2.822v2.288l3.603-2.08v2.668l-3.603,2.08v2.44
					l4.961-2.864v2.974l-7.363,4.251V315.065z"/>
			</g>
		</g>
		<polygon id="Vote" style="fill:#FAFAFA;" points="307.53,273.723 305.146,278.68 281.911,292.136 277.064,289.34 290.085,261.854 
					"/>
	</g>
</g>
<g id="Character_2">
	<g id="Character_2_">
		<g id="Character_10_">
			<g id="Bottom_6_">
				<g id="XMLID_3648_">
					<g>
						<path style="fill:#37474F;" d="M161.255,384.154c0.779-0.077,0.793,1.824,0.31,2.736c-1.389,2.621-5.246,5.441-10.894,6.689
							c-5.648,1.247-16.702-0.24-20.053-0.368c-3.351-0.128-9.129,1.573-12.466,2.112c-6.078,0.98-10.241-0.703-12.231-2.656
							c-0.78-0.766-0.856-1.896-0.831-2.87c0.058-2.31,0.26-2.777,0.518-2.759L161.255,384.154z"/>
						<g id="XMLID_3653_">
							<g id="XMLID_3655_">
								<path id="XMLID_3657_" style="fill:#455A64;" d="M106.267,380.301c-0.49,2.259-0.858,6.028-0.534,8.333
									c0.703,1.72,2.585,2.698,4.091,3.17c3.975,1.245,7.872,1.005,12.246,0.071c2.622-0.56,5.478-1.16,8.626-0.987
									c3.458,0.189,11.085,0.964,14.556,1.009c2.947,0.038,6.725-0.56,9.439-1.82c2.292-1.064,5.764-3.422,6.537-5.197
									c0.751-4.154,0.327-6.627-2.067-8.033c-2.529-1.487-6.143-1.78-11.137-2.157c-1.496-0.113-3.382-0.199-4.181-0.286
									c-3.024-0.333-5.849-0.559-8.142-0.704c-1.964-0.124-3.887-0.268-5.651-1.234c-0.841-0.46-1.47-0.931-1.862-1.804
									c-0.478-1.064-0.466-2.613-1.395-2.702c-0.001,0-17.102,2.908-18.486,3.049
									C106.709,371.173,107.753,373.457,106.267,380.301z"/>
							</g>
						</g>
						<path style="fill:#FAFAFA;" d="M145.165,374.246c0.498,0.33,1.005,1.024,1.261,1.496c0.352,0.648,0.6,1.269,0.785,1.985
							c0.227,0.873-0.848,1.046-1.269,0.045c-0.288-0.685-0.581-1.462-1.226-2.374c-0.308-0.436-0.989-1.006-1.485-1.06
							c-0.375-0.039-0.865-0.09-0.865-0.09C142.598,373.601,144.503,373.807,145.165,374.246z"/>
						<path style="fill:#FAFAFA;" d="M137.447,373.347c0.611-0.068,1.111,0.095,1.609,0.489c0.588,0.465,0.953,1.119,1.211,1.805
							c0.209,0.557,0.622,1.986,0.688,2.581c0.062,0.561-1.257,0.542-1.401-0.069c-0.142-0.603-0.43-1.72-0.674-2.352
							c-0.15-0.388-0.834-1.861-1.744-2.009l-0.411-0.024c-0.003-0.195,0.257-0.329,0.439-0.373
							C137.258,373.374,137.352,373.357,137.447,373.347z"/>
						<path style="fill:#FAFAFA;" d="M132.921,373.214c0.44,0.155,0.715,0.205,1.003,0.58c0.271,0.352,0.583,0.921,0.706,1.354
							c0.341,1.196,0.373,1.744,0.4,2.765c0.019,0.722-1.296,0.532-1.341,0.049c-0.14-1.523-0.142-2.519-0.865-3.631
							c-0.596-0.917-1.135-1.191-1.135-1.191c0.036-0.129,0.23-0.145,0.358-0.124C132.245,373.048,132.73,373.147,132.921,373.214z"
							/>
					</g>
					<path id="XMLID_3652_" style="fill:#FFBDA7;" d="M106.373,352.586c0,0,1.477,15.734,1.85,19.368
						c0.119,1.161,2.315,1.626,3.446,2.117c1.131,0.491,2.916,1.271,3.888,2.236c2.875,2.856,5.041,3.525,6.771-1.478
						c0.354-1.024,1.013-1.467,2.326-1.226c0.982,0.181,1.981,0.617,2.968,0.417c0.152-0.099,0.06-0.334-0.042-0.484
						c-0.796-1.144-1.202-1.869-1.042-3.95c0.495-6.434,0.765-12.89,1.128-19.335L106.373,352.586z"/>
				</g>
				<g>
					<path style="fill:#FFBDA7;" d="M51.291,341.048c2.034-3.252,2.672-9.29,4.131-20.504l18.493,9.528l-7.926,19.422
						c-0.541,0.929-0.56,2.327-0.749,2.599C63.024,355.28,51.291,341.048,51.291,341.048z"/>
					<g>
						<path style="fill:#455A64;" d="M45.145,347.986c0.026-0.188-0.074-1.721-0.026-1.905c0.431-1.651,1.452-2.108,2.762-3.03
							c1.624-1.144,3.198-2.513,3.615-3.091c0.439-0.608,0.524-0.923,1.204-1.2c1.16-0.472,3.025-0.51,5.323,0.697
							c3.765,1.978,4.914,4.359,4.697,6.94c-0.165,1.968-0.329,4.585,1.406,5.755c0.722,0.487,1.862-2.658,1.862-2.658
							c1.07,1.793-0.433,4.275-1.217,7.907c-0.538,2.492-0.407,3.576-0.105,6.107c0.38,3.189,0.822,3.176,2.514,3.398
							c1.458,0.191,5.595-0.086,8.111,1.672c3.468,2.422,2.541,5.645,2.541,5.645c-0.449,1.226-4.22,7.172-17.998,4.951
							c-3.996-0.644-12.392-6.928-12.264-7.514c0.119-0.546-0.013-1.254-0.032-1.805c-0.048-1.409-0.109-2.817-0.17-4.225
							c-0.056-1.284,0.074-2.778-0.234-4.025c-0.275-1.11-0.406-2.173-0.513-3.328c-0.264-2.829-0.527-5.657-0.791-8.485
							C45.755,348.977,45.035,348.79,45.145,347.986z"/>
						<path id="XMLID_3645_" d="M43.41,347.427c-1.358,1.315-0.532,5.13,1.29,9.709c0.808,2.031,2.314,5.528,1.872,9.245
							c-0.442,3.716-0.52,5.473,0.438,7.215c1.499,2.725,9.509,6.212,14.229,7.304c0,0-4.325-5.43-4.8-13.634
							c-0.475-8.204-1.101-13.493-4.852-17.131C46.843,345.535,43.41,347.427,43.41,347.427z"/>
						<path id="XMLID_3644_" style="fill:#37474F;" d="M77.833,374.222c0,0-2.764,5.177-13.423,5.008
							c-4.196-0.066-6.442-2.111-6.545-8.489c-0.124-7.687-0.743-15.45-3.229-19.266c-2.486-3.816-6.446-5.666-9.518-5.394
							c-0.534,0.085-1.208,0.595-1.709,1.346c0,0,3.075-1.01,7.857,2.959c3.531,2.931,4.486,9.051,4.432,16.652
							c-0.023,3.271-0.222,6.98,0.736,9.462c0.883,2.288,2.841,3.855,5.09,4.486c5.796,1.627,13.726-1.055,15.732-3.504
							C78.408,375.85,77.833,374.222,77.833,374.222z"/>
						<g>
							<path id="XMLID_3575_" style="fill:#FAFAFA;" d="M65.028,365.51c0,0,0.778,0.549,0.862,1.272
								c0.085,0.723-0.165,2.393-1.68,3.338c-0.642,0.401-1.202,0.26-0.182-1.087C65.048,367.687,65.028,365.51,65.028,365.51z"/>
							<path id="XMLID_591_" style="fill:#FAFAFA;" d="M64.454,361.532c0,0,0.339,0.218,0.424,1.286
								c0.046,0.573-0.845,2.88-1.967,3.43c-1.121,0.55-0.515-0.744-0.029-1.379C63.415,364.173,64.356,362.591,64.454,361.532z"/>
							<path id="XMLID_588_" style="fill:#FAFAFA;" d="M64.832,357.136c0,0,0.364,0.101-0.025,1.572
								c-0.131,0.496-1.6,1.953-2.323,2.039c-0.723,0.087-1.074-0.275-0.187-0.918C62.997,359.323,64.697,357.85,64.832,357.136z"/>
						</g>
					</g>
				</g>
				<g>
					<path id="XMLID_587_" style="fill:#BA68C8;" d="M71.734,337.502c0,0,3.39-7.953,15.455-34.944
						c3.65-8.167,4.6-14.226,5.52-18.236c0.959-4.176,5.085-24.719,5.085-24.719l5.261,34.182c-0.757,3.66-1.851,9.242-1.87,13.492
						c-0.019,5.648,0.71,14.217,2.305,25.84c2.439,17.774,3.098,27.023,3.098,27.023c1.255,0.896,5.226,2.65,12.042,2.265
						c4.353-0.246,8.938-2.484,8.938-2.484s1.543-18.488,2.183-31.384c0.591-11.9,1.568-25.348,2.073-32.525
						c0.95-13.485,1.257-19.296,1.392-40.54c0.14-22.033-1.538-54.442-1.538-54.442l-62.507-1.44c0,0-4.109,9.181-2.853,28.158
						c-0.486,18.536-3.243,53.803-3.243,53.803c-2.608,6.306-5.46,15.21-6.607,26.104c-0.922,8.76-2.31,20.301-2.31,20.301
						C60.778,327.703,68.064,332.041,71.734,337.502z"/>
					<path id="XMLID_586_" style="opacity:0.2;" d="M97.84,259.781l-3.452-24.496c0,0-8.106-0.621-17.852-8.732
						c0,0,1.282,7.259,15.107,12.22l3.611,25.483l-2.627,20.703C92.628,284.961,97.779,260.246,97.84,259.781z"/>
				</g>
			</g>
			<g id="Top_2_">
				<g>
					<path style="fill:#B16668;" d="M146.6,176.914l2.172,0.362l1.288,1.819c0,0-0.648,1.258,0.022,2.594
						c0.67,1.336,1.643,0.914,1.643,0.914l0.973-2.41l0.402-3.35l-2.731-2.417l-2.676-0.525L146.6,176.914z"/>
					<path style="fill:#F0997A;" d="M154.477,175.813c0.278,1.572,0.344,2.154,0.106,2.912c-0.237,0.758-0.49,1.647-0.92,2.534
						c-0.285,0.587-1.382,0.587-2.06-0.891c-0.56-1.221,0.232-3.934,0.232-3.934L154.477,175.813z"/>
					<path style="fill:#F0997A;" d="M158.567,172.45c0.307,1.543,1.224,4.426,1.39,5.555c0.166,1.129-1.215,0.97-1.215,0.97
						l-3.28-4.723L158.567,172.45z"/>
					<path style="fill:#FFBDA7;" d="M146.275,161.021c1.465-0.605,1.439-0.623,3.46,0.453c2.02,1.076,6.46,3.986,7.824,5.213
						c1.364,1.227,0.996,3.589,1.006,5.628c0.01,2.04,0.371,4.246,0.01,4.817c-0.36,0.571-0.964,0.215-0.964,0.215L146.275,161.021z
						"/>
					<g id="XMLID_3723_">
						<g id="XMLID_3868_">
							<g id="Pencil_3_">
								<g id="XMLID_3895_">
									<g id="XMLID_3896_">
										<path id="XMLID_3912_" style="fill:#FFA8A7;" d="M159.078,179.454l1.758,6.134c0.051,0.178-0.153,0.32-0.302,0.21
											l-5.157-3.821L159.078,179.454z"/>
										<path id="XMLID_3911_" style="fill:#F28F8F;" d="M160.564,185.813c-0.01-0.005-0.02-0.008-0.03-0.015l-5.157-3.821
											l1.957-1.334l0.449,0.648l2.865,4.315L160.564,185.813z"/>
										<path id="XMLID_3910_" style="fill:#263238;" d="M160.534,185.798c0.149,0.11,0.353-0.031,0.302-0.21l-0.343-1.198l0,0
											c-0.182,0.359-0.55,0.587-0.952,0.589l-0.11,0.001L160.534,185.798z"/>
										<path id="XMLID_3909_" style="fill:#455A64;" d="M137.578,156.339l0.337,0.485l0.404,0.587l17.057,24.566
											c0.697,0.173,1.43-0.003,2.054-0.352c0.952-0.527,1.66-1.454,1.645-2.169l-17.049-24.553l-0.777-1.119
											C141.713,154.536,138.053,157.087,137.578,156.339z"/>
										<path id="XMLID_3908_" style="fill:#37474F;" d="M137.579,156.338l0.337,0.486l0.404,0.587l17.057,24.565
											c0.92,0.169,1.731-0.065,2.458-0.609l-17.764-25.869c0.067-0.049,0.068-0.087,0.016-0.111
											C139.107,156.142,137.844,156.758,137.579,156.338z"/>
										<path id="XMLID_3907_" style="fill:#EBEBEB;" d="M138.854,158.19l0.754,1.083c0.208,0.321,1.017,0.057,1.838-0.41
											c1.091-0.617,2.103-1.736,1.828-2.162l-0.554-0.799l-0.203-0.282c0.275,0.426-0.736,1.546-1.828,2.163
											c-0.787,0.446-1.567,0.706-1.808,0.439l-0.002-0.003C138.868,158.212,138.861,158.202,138.854,158.19z"/>
										<path id="XMLID_3906_" style="fill:#37474F;" d="M139.045,158.459c0.482,0.747,4.145-1.824,3.664-2.57l-0.751-1.086
											c0.482,0.747-3.182,3.316-3.663,2.57L139.045,158.459z"/>
										<path id="XMLID_3905_" style="fill:#EBEBEB;" d="M137.578,156.339l0.741,1.072c0.468,0.736,4.024-1.714,3.707-2.508
											c-0.004-0.014-0.013-0.03-0.022-0.045l-0.755-1.074C141.713,154.536,138.053,157.087,137.578,156.339z"/>
										<path id="XMLID_3904_" style="fill:#FFA8A7;" d="M160.747,185.808c-0.052,0.03-0.119,0.039-0.18,0.009
											C160.627,185.848,160.694,185.84,160.747,185.808z"/>
										<path id="XMLID_3897_" style="fill:#F28F8F;" d="M136.014,154.122l1.565,2.217c0.203,0.32,1.005,0.064,1.822-0.395
											c1.094-0.614,2.116-1.729,1.85-2.16c0-0.003,0-0.003-0.002-0.006l-1.577-2.231c-0.632-0.905-2.626,0.149-3.459,1.291
											C135.897,153.263,135.781,153.718,136.014,154.122z"/>
									</g>
								</g>
								<path id="XMLID_3874_" style="opacity:0.1;" d="M137.521,154.279c1.054-0.367,2.037-1.331,2.194-2.153
									c0.058-0.302-0.005-0.542-0.158-0.708c-0.73-0.662-2.557,0.339-3.345,1.419c-0.309,0.417-0.425,0.863-0.21,1.26
									C136.243,154.438,136.806,154.528,137.521,154.279z"/>
							</g>
						</g>
					</g>
					<path style="fill:#FFBDA7;" d="M146.663,169.426c1.532,1.574,3.237,1.977,6.188,2.815c0.949,0.27,2.536,1.215,3.932,2.152
						c1.167,0.783,1.714,2.251-0.518,3.287c-1.501,0.697-3.408-0.169-5.056-0.477c-0.831-0.155-1.816-0.241-2.433-0.204
						c-2.316,0.138-2.717,0.882-5.331,1.474c-2.614,0.591-4.712-0.065-6.174,0.191c-1.461,0.256-35.538,10.46-35.538,10.46
						l-0.359-18.972c0,0,28.486-2.137,33.073-2.932c3.725-0.646,8.12-3.692,8.12-3.692L146.663,169.426z"/>
					<path style="fill:#F0997A;" d="M137.369,166.334c-0.961,0.391-1.964,0.718-2.923,0.884c-4.587,0.796-33.073,2.932-33.073,2.932
						l0.359,18.972c0,0,34.077-10.204,35.538-10.46c0.294-0.051,0.62-0.061,0.964-0.056L137.369,166.334z"/>
					<path style="fill:#F0997A;" d="M154.312,167.21c-0.733,0.771-1.492,0.849-2.093,0.531c-0.601-0.318-2.588-1.887-2.588-1.887
						l4.975,7.165c0,0-0.285-1.038,0.075-1.91c0.342-0.419,0.665-0.749,1.285-0.851c-0.923-0.15-1.605,0.344-1.605,0.344
						s-1.237-0.63-1.328-1.952C154.334,167.758,154.312,167.21,154.312,167.21z"/>
				</g>
				<path style="fill:#37474F;" d="M68.687,121.553c-4.135,7.904-3.823,16.865-2.63,27.954c1.1,10.227,1.871,16.561,2.814,29.212
					c1.077,14.453-0.85,23.568-0.85,23.568s8.386,11.652,26.406,16.242c31.667,8.065,38.343-2.366,38.343-2.366
					s-0.281-10.998-0.241-19.554c0.036-7.705-0.136-16.839-0.401-24.432c-0.607-17.425-0.808-31.901-2.828-38.118
					c-1.486-3.434-3.051-4.802-6.857-6.53c-3.143-1.427-9.13-4.33-13.6-6.055c-10.399-4.013-25.059-7.64-25.059-7.64
					C76.475,112.872,70.834,117.449,68.687,121.553z"/>
				<g>
					<path id="XMLID_585_" style="fill:#FFBDA7;" d="M111.118,113.833l-2.274,7.64c-5.381,0.172-17.591-1.972-20.129-4.454
						l2.343-9.062L111.118,113.833z"/>
					<g id="XMLID_571_">
						<g id="XMLID_577_">
							<path id="XMLID_584_" style="fill:#F0997A;" d="M129.064,92.085c0,0,2.067,2.259,2.73,8.872l-4.039,1.953
								C127.397,98.285,126.963,93.562,129.064,92.085z"/>
						</g>
						<g id="XMLID_572_">
							<path id="XMLID_573_" style="fill:#FFBDA7;" d="M123.129,72.825c6.558,1.666,9.028,8.267,5.261,21.912
								c0.462,14.873-4.863,19.742-7.052,21.274c-4.574,1.463-8.874,1.05-14.347-1.51c-4.172-1.951-14.667-7.292-18.048-15.039
								c-3.976-9.115-3.132-21.704,3.541-25.216C101.875,69.302,119.656,71.942,123.129,72.825z"/>
						</g>
						<path style="fill:#F0997A;" d="M122.634,106.303c0.07,0.039,0.146,0.074,0.192,0.143c0.034,0.05,0.054,0.114,0.082,0.168
							c0.061,0.116,0.129,0.229,0.203,0.338c0.16,0.235,0.349,0.444,0.558,0.638c0.389,0.362,0.851,0.586,1.324,0.821
							c0.037,0.018,0.06,0.048,0.061,0.09c0.002,0.05,0.006,0.105-0.037,0.141c-0.098,0.082-0.28,0.027-0.396-0.002
							c-0.136-0.033-0.27-0.095-0.397-0.153c-0.281-0.13-0.546-0.293-0.787-0.485c-0.232-0.185-0.438-0.406-0.615-0.642
							c-0.088-0.118-0.169-0.24-0.242-0.368c-0.035-0.061-0.068-0.122-0.099-0.185c-0.06-0.125-0.038-0.21-0.02-0.347
							C122.47,106.406,122.549,106.256,122.634,106.303z"/>
						<path style="fill:#F0997A;" d="M121.338,116.011c-1.212,0.847-7.466,1.629-11.035,0.558l0.815-2.737
							C111.118,113.833,116.002,115.711,121.338,116.011z"/>
					</g>
					<g id="XMLID_344_">
						<g id="XMLID_566_">
							<g id="XMLID_569_">
								<path id="XMLID_570_" style="fill:#263238;" d="M121.727,82.674c0,0-0.191,1.807-1.438,2.991
									c-1.247,1.185-2.565,1.828-4.156,1.961c0.607,1.934,0.747,4.007,0.404,6.001c-0.108,0.627-0.279,1.278-0.729,1.736
									c-0.793,0.809-1.825,0.526-2.15-0.42c-0.391-1.136-0.598-2.281-1.245-3.323c-0.749-1.205-1.886-2.225-3.269-2.622
									c-5.232-1.501-6.783,6.789-5.165,9.992c2.649,5.241,6.063,2.821,6.063,2.821s0.49,7.421-5.213,9.544
									c0,0-8.875,1.324-13.995-2.578c-3.987-6.215-7.727-13.209-8.499-18.821c-1.681-12.208,1.95-19.141,7.395-20.138
									c1.484-4.309,6.132-6.308,10.394-7.008c5.808-0.953,10.778,1.739,16.353,2.721c2.849,0.502,5.815,0.348,8.592-0.445
									c1.235-0.353,2.747-0.77,3.664,0.113c0.363,0.35,0.542,0.843,0.645,1.331c0.363,1.733-0.153,3.621-1.352,4.944
									c1.657-0.772,4.156,0.165,5.419,1.586c1.814,2.041,1.787,4.065,0.534,6.676C133.203,81.362,128.753,86.144,121.727,82.674z"
									/>
							</g>
						</g>
						<g id="XMLID_348_">
							<g id="XMLID_560_">
								<path id="XMLID_561_" style="fill:#263238;" d="M89.816,70.977l-4.549-3.819c1.077-1.228,2.969-1.368,4.225-0.313
									C90.748,67.899,90.893,69.749,89.816,70.977z"/>
							</g>
						</g>
					</g>
				</g>
				<g>
					<path style="fill:#FFBDA7;" d="M180.419,208.219c-1.177-1.177-2.363-2.233-3.339-3.158c-0.814-0.771-1.863-1.833-3.656-3.814
						c-0.764-0.844-1.604-0.431-3.185-0.943c-1.582-0.512-1.111-1.771-2.101-2.245c-1.158-0.554-1.558-0.211-2.679-0.727
						c-1.378-0.633-2.092-2.111-3.777-1.487c-3.056,1.132-4.02,2.549-8.235-1.348c-10.417-9.629-16.833-15.779-16.833-15.779
						s-1.967-26.366-2.821-32.453c-1.156-8.241-0.896-14.007-11.679-17.516c0,0-8.649,3.984-7.97,19.652
						c0.587,13.531,2.166,26.863,2.963,33.374c0.673,5.499,1.654,6.189,8.547,10.956c16.92,11.701,19.524,13.567,21.655,14.939
						c2.858,1.839,5.809,4.033,8.961,4.204c2.93,0.159,7.135-1.769,9.176-2.882c3.296-1.797,5.956-2.728,7.055-2.458
						c1.1,0.27,3.029,2.33,5.029,2.879C179.4,209.927,180.993,208.792,180.419,208.219z"/>
					<path style="fill:#BA68C8;" d="M122.443,127.527c4.957,2.275,6.995,3.467,9.615,7.734c1.733,2.822,2.035,5.878,2.754,13.362
						c0.629,6.534,1.496,19.031,1.496,19.031s-1.115,2.983-8.389,5.366c-7.274,2.382-12.931-0.148-12.931-0.148
						s-1.428-13.05-1.918-18.45C112.403,147.07,111.854,133.038,122.443,127.527z"/>
				</g>
			</g>
		</g>
	</g>
</g>
<g id="Character_1">
	<g id="Character_3_">
		<g id="Bottom_16_">
			<g>
				<g id="XMLID_3758_">
					<path style="fill:#37474F;" d="M427.001,353.414c0.457,2.252,1.308,4.861,2.032,9.476c0.71,4.525-0.379,4.802,2.937,16.356
						c1.991,6.935,1.629,9.695-3.028,15.547c-4.986,6.263-10.192,5.001-13.587-1.944c-2.902-5.935-2.729-8.694-2.74-14.843
						c-0.01-6.149-0.079-7.941-0.386-12.817c-0.271-4.297,0.122-7.236-0.172-10.529L427.001,353.414z"/>
				</g>
				<g>
					<path style="fill:#B16668;" d="M428.537,370.262c-0.932-5.959-1.149-12.13-1.488-16.158c-0.76-9.022,1.255-26.858-0.159-40.424
						l-25.113-2.287c0.842,5.289,7.781,29.207,10.301,43.647c0,0,0.989,19.599,2.372,28.227c0.174,1.089,1.458,1.756,2.548,1.28
						c3.41-1.487,8.148-1.67,11.369-0.683c1.204,0.369,2.448-0.422,2.427-1.579C430.736,379.092,429.236,374.732,428.537,370.262z"
						/>
				</g>
			</g>
			<g>
				<g>
					<path style="fill:#B16668;" d="M356.501,306.544c0.927,18.495,1.124,32.603,0.924,40.581c-0.123,4.915-0.866,8.131-2.196,11.51
						c-1.33,3.379-3.635,8.251-5.553,10.403c0,0-6.191,6.63-5.011,7.25c1.181,0.62,13.951,1.409,19.018,0.01
						c5.067-1.399,7.018-5.654,8.915-13.407c1.898-7.753,3.639-19.102,3.639-19.102s-0.207-0.303-0.487-1.332
						c-0.614-2.262,1.813-13.629,2.466-19.276L356.501,306.544z"/>
				</g>
				<g>
					<g>
						<path style="fill:#263238;" d="M380.768,355.202c-0.193,1.916-1.646,4.185-2.135,7.187c-0.49,3.002-0.808,6.118-0.702,10.353
							c0.106,4.235,0.121,4.837,0.121,4.837l-1.313,0.033c0,0-0.154-6.121-0.221-8.808c-0.067-2.686-1.358-5.054-2.649-5.31
							C373.868,363.493,374.414,355.361,380.768,355.202z"/>
					</g>
					<g>
						<path style="fill:#37474F;" d="M376.058,342.735c0.766,2.168,2.725,5.012,3.849,7.091c0.651,1.204,1.194,2.855,1.209,3.915
							c0.014,1.037-0.348,2.496-1.743,3.867c-1.057,1.039-1.813,1.829-3.072,2.985c-2.634,2.419-3.727,4.545-5.476,10.159
							c-1.04,3.336-2.717,6.37-5.678,7.99c-2.309,1.263-8.645,3.395-16.44,3.069c-6.466-0.27-8.957-3.094-6.484-5.518
							c2.474-2.424,6.701-6.74,7.454-7.255c0,0,3.788-0.05,6.853,1.356c3.578,1.641,4.682,3.769,8.524,1.964
							c3.479-1.634,5.318-7.623,5.621-17.156C371.004,344.813,376.058,342.735,376.058,342.735z"/>
					</g>
				</g>
			</g>
			<g>
				<g id="XMLID_3757_">
					<path style="fill:#37474F;" d="M409.48,180.844c0.448,2.354,0.949,4.558,1.806,5.729c5.241,7.154,10.592,15.821,11.636,29.219
						c2.518,32.324,2.628,63.545,2.628,63.545c0.261,2.855,3.683,8.985,3.248,26.233c-0.328,12.99-1.278,32.867-1.278,32.867
						s-11.417,4.641-19.545,1.637c-3.341-12.367-8.705-41.776-12.02-55.929c-3.495-14.917-5.891-32.916-5.891-32.916l-7.175,27.981
						c0,0,1.864,10.023,0.839,19.694c-0.92,8.684-6.5,34.727-6.5,34.727s-13.553,2.91-20.568-1.872c0,0-1.698-43.271-1.829-52.818
						c-0.131-9.548-1.618-62.178,4.066-87.185c0.265-1.165,1.05-9.071,1.05-9.071C366.829,188.274,400.421,187.049,409.48,180.844z"
						/>
				</g>
				<g>
					<path style="fill:#455A64;" d="M427.741,333.645c-3.508,3.274-16.735,4.329-21.008,2.1l1.704,6.99
						c0,0,4.148,1.952,10.308,1.351c6.21-0.606,8.774-3.372,8.774-3.372L427.741,333.645z"/>
				</g>
				<g>
					<path style="fill:#455A64;" d="M378.216,329.331c-3.659,1.262-17.84,0.397-21.874-2.037l0.245,5.796
						c0,0,5.528,2.507,11.69,3.082c6.187,0.577,8.823-1.177,8.823-1.177L378.216,329.331z"/>
				</g>
				<g id="XMLID_3756_">
					<path style="fill:#263238;" d="M390.064,251.228l-4.437-31.945c0,0-9.359,0.815-16.256-7.58c0,0-0.164,8.003,13.031,11.508
						l5.199,29.435l-4.712,26.564L390.064,251.228z"/>
				</g>
			</g>
		</g>
		<g id="Top_13_">
			<g id="Arm_8_">
				<g>
					<path style="fill:#B16668;" d="M330.154,159.804c-3.718-2.791-6.53-4.872-10.82-11.723c-1.083-1.729-3.143-3.422-4.162-4.353
						c-1.902-1.737-3.094-3.873-3.614-4.943c-0.392-0.93-2.757,0.076-2.294,3.296c0.344,2.392,1.802,4.566,2.381,5.927
						c-1.269,0.039-3.282-0.171-6.032-0.031c-2.749,0.141-8.169-0.117-7.174,3.009c0.223,0.7,0.788,1.297,0.811,2.031
						c0.011,0.351-0.107,0.692-0.174,1.036c-0.251,1.297,0.277,2.715,1.316,3.531c0.237,0.186,0.507,0.353,0.649,0.619
						c0.285,0.531,0.072,1.2,0.187,1.767c0.133,0.652,0.507,1.243,0.955,1.726c0.668,0.721,0.891,0.473,1.56,1.192
						c0.441,0.474,0.526,1.514,1.557,2.196c0.771,0.51,2.622,0.572,4.595,0.54c1.813-0.029,3.083,0.622,5.703,0.547
						c2.065-0.06,4.026,1.1,7.437,4.613c7.672,7.328,8.653,9.714,15.542,15.305c0.671,0.545,1.329,1.029,1.909,1.412
						c6.518,4.49,9.101,0.999,14.247-8.073c6.326-11.15,9.613-17.465,9.613-17.465l10.156-30.292
						c-6.259,0.702-13.615,7.788-19.181,15.821c-2.607,3.762-13.421,20.37-13.421,20.37
						C338.253,165.529,333.872,162.594,330.154,159.804z"/>
					<g>
						<path style="fill:#9A4A4D;" d="M308.276,149.864c0.274,0.074,0.545,0.17,0.802,0.301c0.257,0.133,0.503,0.278,0.717,0.505
							l-0.08-0.033c1.219-0.165,2.557-0.113,3.672,0.575c0.274,0.171,0.533,0.377,0.745,0.641c0.206,0.264,0.367,0.611,0.334,0.99
							c-0.019,0.168-0.047,0.356-0.179,0.538c-0.142,0.182-0.346,0.25-0.503,0.294c-0.326,0.078-0.619,0.11-0.916,0.174
							c-0.586,0.118-1.169,0.32-1.782,0.458c-0.613,0.148-1.256,0.182-1.878,0.138c-1.24-0.117-2.463-0.31-3.629-0.726
							c0.594,0.157,1.208,0.214,1.817,0.283c0.611,0.063,1.219,0.138,1.824,0.145c0.606,0.005,1.201-0.052,1.783-0.196
							c0.585-0.143,1.164-0.354,1.782-0.492c0.303-0.07,0.622-0.116,0.893-0.186c0.287-0.064,0.354-0.17,0.392-0.471
							c0.054-0.5-0.398-0.979-0.876-1.283c-0.992-0.641-2.252-0.792-3.455-0.713l-0.051,0.004l-0.029-0.037
							c-0.159-0.203-0.392-0.381-0.626-0.527C308.792,150.101,308.539,149.971,308.276,149.864z"/>
						<path style="fill:#9A4A4D;" d="M312.56,153.717c0.504-0.19,1.137,0.02,1.455,0.498c0.343,0.481,0.241,1.162-0.064,1.624
							c-0.527,0.939-1.292,1.764-2.334,2.249c-0.544,0.2-1.103,0.202-1.636,0.204c-0.536-0.011-1.064-0.027-1.592-0.064
							c-1.057-0.065-2.113-0.134-3.168-0.253c1.06-0.059,2.119-0.068,3.178-0.073c1.048-0.023,2.149,0.117,3.076-0.2
							c0.444-0.154,0.859-0.509,1.242-0.837c0.373-0.344,0.676-0.761,0.982-1.189c0.296-0.395,0.401-0.926,0.156-1.363
							C313.63,153.872,313.085,153.613,312.56,153.717z"/>
						<path style="fill:#9A4A4D;" d="M312.099,157.603c0.438-0.185,0.967-0.256,1.446-0.027c0.235,0.116,0.428,0.356,0.482,0.628
							c0.04,0.262,0.072,0.492,0.023,0.774c-0.136,0.561-0.537,0.888-0.852,1.248c-0.34,0.341-0.696,0.716-1.222,0.901
							c-0.529,0.166-1.037,0.06-1.483,0.081c-0.462,0.013-0.928,0.101-1.402,0.163c-0.944,0.145-1.888,0.31-2.841,0.438
							c0.916-0.295,1.844-0.538,2.783-0.75c0.468-0.112,0.947-0.195,1.443-0.229c0.505-0.028,0.976,0.043,1.372-0.098
							c0.395-0.12,0.747-0.447,1.082-0.771c0.324-0.332,0.69-0.675,0.813-1.055c0.054-0.187,0.046-0.444,0.029-0.655
							c-0.023-0.203-0.145-0.384-0.328-0.501C313.075,157.5,312.561,157.502,312.099,157.603z"/>
						<path style="fill:#9A4A4D;" d="M312.295,160.745c0.196,0.054,0.358,0.221,0.448,0.421c0.082,0.204,0.09,0.429,0.063,0.641
							c-0.078,0.429-0.24,0.767-0.405,1.145c-0.098,0.177-0.207,0.35-0.328,0.514c-0.117,0.169-0.301,0.34-0.468,0.432
							c-0.342,0.216-0.696,0.389-1.077,0.51l0.883-0.764c0.142-0.143,0.259-0.232,0.351-0.394c0.101-0.156,0.189-0.321,0.27-0.489
							c0.178-0.32,0.344-0.697,0.464-1.022C312.604,161.41,312.6,161.018,312.295,160.745z"/>
						<path style="fill:#9A4A4D;" d="M314.268,152.833c-0.248,1.159,0.383,4.313,2.408,5.786c2.025,1.473,3.536,1.504,3.536,1.504
							s-1.9,0.123-3.698-0.814c-1.798-0.936-2.43-1.929-2.43-1.929l-0.193,0.799c-0.254-0.418-0.376-0.78-1.514-0.665
							c0,0,1.007-0.941,1.347-1.603c0.34-0.662,0.83-1.7-0.579-2.32c0,0,0.462-0.055,0.853-0.223
							C314.39,153.202,314.268,152.833,314.268,152.833z"/>
					</g>
				</g>
				<path style="fill:#BA68C8;" d="M375.375,130.755c-8.856,1.62-11.957,1.69-21.133,16.497
					c-5.633,9.089-12.474,20.177-12.474,20.177l-6.555-4.031c1.214,1.232,3.608,7.558,1.999,11.465
					c-1.609,3.907-5.191,5.532-5.191,5.532s3.635,3.833,7.192,6.547c3.557,2.714,5.443,3.12,7.608,2.479s4.272-2.986,9.514-9.208
					c5.39-6.397,11.694-15.805,11.694-15.805L375.375,130.755z"/>
				<path style="opacity:0.55;fill:#FFFFFF;" d="M375.375,130.755c-8.856,1.62-11.957,1.69-21.133,16.497
					c-5.633,9.089-12.474,20.177-12.474,20.177l-6.555-4.031c1.214,1.232,3.608,7.558,1.999,11.465
					c-1.609,3.907-5.191,5.532-5.191,5.532s3.635,3.833,7.192,6.547c3.557,2.714,5.443,3.12,7.608,2.479s4.272-2.986,9.514-9.208
					c5.39-6.397,11.694-15.805,11.694-15.805L375.375,130.755z"/>
				<path style="opacity:0.35;fill:#BA68C8;" d="M341.768,167.429c3.488,2.126,6.846,6.649,7.436,9.318
					c0.199-3.383-1.818-8.434-6.274-11.201L341.768,167.429z"/>
				<path style="opacity:0.35;fill:#BA68C8;" d="M335.284,183.477c0.583-0.311,1.133-0.682,1.647-1.096
					c1.049-0.843,1.931-1.884,2.596-3.054c1.249-2.2,1.767-4.896,1.379-7.398c-0.02-0.128,0.125-0.128,0.152-0.014
					c0.621,2.721,0.268,5.565-1.179,7.975c-0.722,1.201-1.669,2.265-2.772,3.13c-0.448,0.351-0.927,0.66-1.421,0.942
					c-0.165-0.15-0.326-0.299-0.484-0.446C335.229,183.503,335.258,183.492,335.284,183.477z"/>
			</g>
			<path id="Tshirt" style="fill:#FAFAFA;" d="M394.813,127.149l14.158,4.401c2.431,0.834,11.614,6.437,8.405,20.263
				c-1.061,4.572-2.508,10.993-3.814,17.403c-0.999,4.902,2.667,14.336,5.63,29.358c0,0-12.143,9.656-36.273,6.931
				c-18.409-2.079-25.334-9.954-25.334-9.954c-0.172-14.329,2.86-23.406,4.227-28.859c0,0-2.064-2.576-2.178-8.402
				c-0.12-6.108,3.557-11.458,9.034-18.386c5.213-6.593,10.027-10.233,10.027-10.233L394.813,127.149z"/>
			<g id="Head">
				<path style="fill:#263238;" d="M363.251,109.893c-0.616-2.038-2.915-2.226-3.399-4.961c-0.485-2.735,0.966-4.582,3.213-5.799
					c2.248-1.217,2.694-3.432,2.246-8.022c-0.448-4.59,2.813-7.325,6.582-7.879c1.86-0.273,4.021-0.083,5.323-1.439
					c0.573-0.597,0.865-1.4,1.258-2.128c1.795-3.323,5.139-4.77,9.608-4.748c1.818,0.009,4.215,0.351,5.854,1.127
					c2.266,0.88,3.396,1.671,5.656,3.762c2.45-0.399,7.062,0.134,9.559,2.34c1.802,1.507,3.546,3.168,4.086,6.612
					c0.425,2.713,0.173,4.251,1.34,5.723c2.38,3.003,5.351,2.992,6.704,5.525c1.921,3.594-2.813,6.683-0.398,11.044
					c2.03,3.667,0.567,7.972-3.616,9.565c-2.099,0.8-3.891-0.285-6.892,0.836c-2.953,1.103-3.124,3.41-6.942,4.946
					c-3.12,1.256-5.79-1.032-8.325-1.327c-3.457-0.403-2.35,0.738-5.759-1.452c-1.17-0.751-1.868-2.09-3.046-2.829
					c-3.747-2.24-4.964-1.025-9.501,0.606c-1.181,0.425-5.098,1.521-7.773-1.439c-1.387-1.535-2.419-4.218-2.319-6.915
					c-0.762,2.498-6.494,2.45-7.074-1.519C360.892,113.459,363.867,112.103,363.251,109.893z"/>
				<g>
					<path style="fill:#B16668;" d="M400.216,124.105c0.056-2.289,0.461-8.084,0.461-8.084c0.847,2.134,4.722,2.222,6.619-0.417
						c2.404-3.343,2.396-7.313,0.76-9.738c-1.807-2.68-6.104-2.743-8.018,1.405c-2.835,0.525-3.912-3.817-1.574-7.81
						c0.049-9.532-12.908-6.325-15.515-14.878c-4.566,0.644-8.818,4.226-10.536,7.826c-1.01,2.117-1.172,3.425-0.933,7.707
						c0.093,1.673-1.055,3.61-1.389,5.822c-1.528,10.128,1.447,14.173,4.769,16.144c1.769,1.05,4.065,1.73,8.298,1.978
						c0,0-0.074,1.898-0.162,3.161c-0.088,1.263-0.212,1.811-1.735,2.024c-0.518,0.072-1.098,0.118-1.098,0.118s-7,6.46,2.217,8.145
						c13.762,2.517,19.263-5.871,19.869-7.994C400.151,129.063,400.124,127.917,400.216,124.105z"/>
					<g>
						<g id="XMLID_3764_">
							<path id="XMLID_3765_" style="fill:#9A4A4D;" d="M387.279,112.974l-5.081,1.358c0.347,1.452,1.766,2.325,3.169,1.951
								C386.77,115.908,387.626,114.427,387.279,112.974z"/>
							<path style="fill:#F28F8F;" d="M386.906,114.116c-1.4-0.101-2.638,0.811-2.997,2.114c0.456,0.154,0.957,0.186,1.458,0.052
								c1.007-0.269,1.723-1.11,1.924-2.099C387.164,114.157,387.039,114.126,386.906,114.116z"/>
						</g>
						<path id="XMLID_3763_" style="fill:#263238;" d="M374.049,97.647l3.733-1.549c-0.392-1.055-1.546-1.563-2.577-1.136
							C374.175,95.39,373.657,96.592,374.049,97.647z"/>
						<path id="XMLID_3762_" style="fill:#263238;" d="M392.196,98.888l-3.611-1.927c0.498-1.025,1.711-1.425,2.709-0.893
							C392.29,96.6,392.695,97.863,392.196,98.888z"/>
						<path id="XMLID_3759_" style="fill:#9A4A4D;" d="M383.158,124.061c6.43-0.341,13.675-2.609,15.962-6.101
							c0,0-0.94,3.55-3.553,5.053c-5.972,3.436-12.506,3.139-12.506,3.139L383.158,124.061z"/>
						<path style="fill:#263238;" d="M390.058,103.235c0,0.942-0.764,1.706-1.706,1.706c-0.942,0-1.706-0.764-1.706-1.706
							s0.764-1.706,1.706-1.706C389.295,101.529,390.058,102.293,390.058,103.235z"/>
						<path style="fill:#263238;" d="M377.782,102.435c0,0.942-0.764,1.706-1.706,1.706c-0.942,0-1.706-0.764-1.706-1.706
							c0-0.942,0.764-1.706,1.706-1.706C377.019,100.729,377.782,101.493,377.782,102.435z"/>
						<polygon style="fill:#9A4A4D;" points="375.794,109.118 381.292,111.448 382.738,100.48 						"/>
					</g>
					<path style="fill:#EBEBEB;" d="M405.081,114.586c-0.056,0.773-0.729,1.355-1.502,1.299c-0.773-0.056-1.355-0.728-1.299-1.502
						c0.056-0.773,0.729-1.355,1.502-1.299C404.556,113.14,405.137,113.812,405.081,114.586z"/>
				</g>
			</g>
			<g>
				<path style="fill:#BA68C8;" d="M382.889,128.095c-0.659,0.243-5.076,1.646-7.514,2.66c-7.039,5.391-12.433,13.45-14.255,16.915
					c-2.54,4.831-3.856,9.016-3.988,16.883c-0.114,6.845-0.944,27.2-2.302,38.52c0.741,2.646,8.142,5.794,8.142,5.794
					c0.378-10.174,0.56-42.074,2.757-52.898c2.607-12.844,14.109-24.569,16.79-26.407L382.889,128.095z"/>
				<g>
					<path style="fill:#BA68C8;" d="M400.229,127.314l0.031,2.098c-6.359,16.535-5.113,24.123-4.305,34.996
						c1.93,25.962,4.966,48.467,4.966,48.467s18.157,0.182,24.628-8.562c0,0-5.824-13.146-7.992-26.415
						c-1.285-7.864,2.38-24.001,1.025-35.387c-0.566-4.756-2.366-9.513-5.934-10.632c-2.948-0.924-5.512-1.674-5.512-1.674
						L400.229,127.314z"/>
				</g>
			</g>
			<g id="Arm_5_">
				<g>
					<path style="fill:#9A4A4D;" d="M422.813,218.327c2.873,0.818,6.549-2.754,7.558-3.997c1.009-1.243-0.29-4.196-0.9-6.688
						c-0.609-2.492,0.026-6.706-3.079-5.526C423.286,203.297,416.825,211.619,422.813,218.327z"/>
					<path style="fill:#B16668;" d="M413.208,132.508c9.318,1.947,10.236,1.665,14.636,10.511
						c5.124,10.301,12.382,27.12,14.217,31.039c1.835,3.919,3.6,6.796-1.327,12.839c-4.395,5.39-17.368,20.914-19.29,23.139
						c-1.701,1.969,0.206,7.754,6.059,6.916c0,0-4.454,3.941-6.9,3.503c-2.111-0.378-7.446-3.622-10.491-10.025
						c-1.921-4.04-0.313-7.209,2.61-11.707c3.49-5.368,12.132-19.742,12.132-19.742l-12.833-25.689
						C412.022,153.29,406.401,139.612,413.208,132.508z"/>
				</g>
				<g>
					<path style="fill:#BA68C8;" d="M412.648,131.877c-2.256,2.256-5.844,10.695-0.853,22.894l12.597,24.208l-5.608,9.006
						c0,0,4.02,5.207,7.365,7.581c3.346,2.374,6.492,1.511,6.492,1.511s7.21-8.004,9.761-11.503c2.551-3.498,3-4.526-0.254-12.405
						c-3.138-7.597-13.116-30.74-15.258-34.282C424.746,135.345,421.946,133.043,412.648,131.877z"/>
					<path style="opacity:0.55;fill:#FFFFFF;" d="M412.648,131.877c-2.256,2.256-5.844,10.695-0.853,22.894l12.597,24.208
						l-5.608,9.006c0,0,4.02,5.207,7.365,7.581c3.346,2.374,6.492,1.511,6.492,1.511s7.21-8.004,9.761-11.503
						c2.551-3.498,3-4.526-0.254-12.405c-3.138-7.597-13.116-30.74-15.258-34.282C424.746,135.345,421.946,133.043,412.648,131.877z
						"/>
					<path style="opacity:0.35;fill:#BA68C8;" d="M426.963,188.831c-0.944-0.723-1.83-1.525-2.655-2.382
						c-0.804-0.835-1.544-1.729-2.21-2.678c-0.114-0.162-0.235-0.396-0.342-0.561l-0.422,0.678c0.066,0.095,0.151,0.244,0.217,0.338
						c0.666,0.945,1.399,1.842,2.194,2.681c0.815,0.859,1.699,1.642,2.636,2.366c0.971,0.75,2.083,1.524,3.231,1.968
						c0.313,0.121,0.335-0.325,0.137-0.47C428.835,190.103,427.865,189.521,426.963,188.831z"/>
				</g>
			</g>
		</g>
	</g>
</g>
<g id="Speech_Bubble">
	<g id="Speech_Bubble_10_">
		<g id="Speech_Bubble_12_">
			<path id="XMLID_3718_" style="fill:#BA68C8;" d="M309.71,64.174l29.216,16.901c0.576,0.332,1.043,1.141,1.043,2.704v35.708
				c0-0.233-0.47,0.57-1.049,0.897l-4.149,2.359c-0.579,0.327-1.516,0.322-2.092-0.01l-29.216-16.901
				c-0.576-0.332-1.043-1.141-1.043-1.806V68.318c0-0.665,0.469-1.469,1.049-1.796l4.149-2.359
				C308.197,63.836,309.134,63.841,309.71,64.174z"/>
			<path id="XMLID_3717_" style="opacity:0.2;" d="M332.68,122.732c0.555,0.322,1.569,0.333,2.093,0.012l4.147-2.363
				c0.578-0.323,1.05-1.128,1.05-0.895V83.778c0-1.245-0.13-1.625-0.332-1.963l-6.223,3.582c0.193,0.323,0.308,0.694,0.308,0.128
				v35.704C333.722,122.737,333.293,123.088,332.68,122.732z"/>
			<path id="XMLID_3669_" style="opacity:0.3;fill:#FFFFFF;" d="M302.435,68.129c0.082-0.525,0.511-0.713,1.031-0.414l29.212,16.902
				c0.289,0.169,0.549,0.453,0.737,0.78l6.228-3.582c-0.188-0.313-0.438-0.583-0.718-0.742l-29.217-16.902
				c-0.573-0.332-1.508-0.337-2.091-0.01l-4.146,2.358C302.945,66.819,302.507,67.508,302.435,68.129z"/>
			<g>
				<path id="XMLID_3668_" style="fill:#BA68C8;" d="M342.827,109.36c0.655-0.39,5.649-3.204,5.808-3.296
					c0.482-0.294,0.655-1.007,0.207-1.489l-8.873-10.173l-6.246,3.582l9.281,9.913C343.438,108.361,343.265,109.042,342.827,109.36z
					"/>
				<path id="XMLID_3667_" style="opacity:0.3;fill:#FFFFFF;" d="M342.827,109.36c0.655-0.39,5.649-3.204,5.808-3.296
					c0.482-0.294,0.655-1.007,0.207-1.489l-8.873-10.173l-6.246,3.582l9.281,9.913C343.438,108.361,343.265,109.042,342.827,109.36z
					"/>
				<path style="fill:#BA68C8;" d="M303.464,67.716l29.216,16.901c0.576,0.332,1.043,1.141,1.043,1.806v11.563l9.283,9.91
					c0.601,0.645,0.16,1.529-0.596,1.599l-8.687-0.635l0,0v13.269c0,0.665-0.467,0.935-1.043,0.602l-29.216-16.901
					c-0.576-0.332-1.043-1.141-1.043-1.806V68.318C302.421,67.653,302.887,67.384,303.464,67.716z"/>
			</g>
		</g>
		<g id="Check_5_">
			<path style="fill:#FAFAFA;" d="M314.711,105.351c-0.099,0-0.2-0.007-0.301-0.021c-0.754-0.102-1.403-0.578-1.726-1.266
				l-3.601-7.588c-0.526-1.119-0.046-2.453,1.074-2.979c1.119-0.527,2.452-0.046,2.979,1.074l2.129,4.456l10.29-11.982
				c0.807-0.936,2.222-1.044,3.159-0.24c0.938,0.807,1.045,2.22,0.24,3.159l-12.544,14.607
				C315.981,105.07,315.36,105.351,314.711,105.351z"/>
		</g>
	</g>
</g>
</svg>
